HIERARCHY
ROOT SpineBase
{
  OFFSET 0.000000 0.000000 0.000000
  CHANNELS 6 Xposition Yposition Zposition Zrotation Xrotation Yrotation
  JOINT SpineMid
  {
    OFFSET 0.000000 27.542799 0.000000
    CHANNELS 3 Zrotation Xrotation Yrotation
    JOINT SpineShoulder
    {
      OFFSET -0.101269 20.453255 -0.597167
      CHANNELS 3 Zrotation Xrotation Yrotation
      JOINT Neck
      {
        OFFSET -0.079365 6.772556 -0.490029
        CHANNELS 3 Zrotation Xrotation Yrotation
        JOINT Head
        {
          OFFSET -2.207173 12.539543 -0.485563
          CHANNELS 3 Zrotation Xrotation Yrotation
          End Site
          {
            OFFSET 0 0 0
          }
        }
      }
      JOINT ShoulderLeft
      {
        OFFSET -12.404993 -4.405625 5.021004
        CHANNELS 3 Zrotation Xrotation Yrotation
        JOINT ElbowLeft
        {
          OFFSET -1.788047 -19.246508 4.343915
          CHANNELS 3 Zrotation Xrotation Yrotation
          JOINT WristLeft
          {
            OFFSET -0.122608 -20.007555 1.066693
            CHANNELS 3 Zrotation Xrotation Yrotation
            JOINT HandLeft
            {
              OFFSET -0.771429 -7.445827 0.132339
              CHANNELS 3 Zrotation Xrotation Yrotation
              JOINT HandTipLeft
              {
                OFFSET 0.754531 -5.019942 -1.162710
                CHANNELS 3 Zrotation Xrotation Yrotation
                End Site
                {
                  OFFSET 0 0 0
                }
              }
              JOINT ThumbLeft
              {
                OFFSET 3.262392 -0.569272 -7.009823
                CHANNELS 3 Zrotation Xrotation Yrotation
                End Site
                {
                  OFFSET 0 0 0
                }
              }
            }
          }
        }
      }
      JOINT ShoulderRight
      {
        OFFSET 10.420328 -3.437867 -10.960544
        CHANNELS 3 Zrotation Xrotation Yrotation
        JOINT ElbowRight
        {
          OFFSET 4.677763 -19.635307 -1.496365
          CHANNELS 3 Zrotation Xrotation Yrotation
          JOINT WristRight
          {
            OFFSET 0.656578 -20.030450 -3.116300
            CHANNELS 3 Zrotation Xrotation Yrotation
            JOINT HandRight
            {
              OFFSET -1.503383 -6.281197 -0.162027
              CHANNELS 3 Zrotation Xrotation Yrotation
              JOINT HandTipRight
              {
                OFFSET 0.720240 -6.068164 -1.796289
                CHANNELS 3 Zrotation Xrotation Yrotation
                End Site
                {
                  OFFSET 0 0 0
                }
              }
              JOINT ThumbRight
              {
                OFFSET -2.371968 -1.186491 -1.226252
                CHANNELS 3 Zrotation Xrotation Yrotation
                End Site
                {
                  OFFSET 0 0 0
                }
              }
            }
          }
        }
      }
    }
  }
  JOINT HipLeft
  {
    OFFSET -5.602789 0.713270 -0.190743
    CHANNELS 3 Zrotation Xrotation Yrotation
    JOINT KneeLeft
    {
      OFFSET 5.273761 -26.430319 7.574476
      CHANNELS 3 Zrotation Xrotation Yrotation
      JOINT AnkleLeft
      {
        OFFSET 8.372253 -37.267927 9.382029
        CHANNELS 3 Zrotation Xrotation Yrotation
        JOINT FootLeft
        {
          OFFSET -3.947615 -4.720672 -6.366617
          CHANNELS 3 Zrotation Xrotation Yrotation
          End Site
          {
            OFFSET 0 0 0
          }
        }
      }
    }
  }
  JOINT HipRight
  {
    OFFSET 5.016199 0.486834 -6.108519
    CHANNELS 3 Zrotation Xrotation Yrotation
    JOINT KneeRight
    {
      OFFSET 7.269421 -24.601535 1.428754
      CHANNELS 3 Zrotation Xrotation Yrotation
      JOINT AnkleRight
      {
        OFFSET 7.617996 -38.206287 12.290783
        CHANNELS 3 Zrotation Xrotation Yrotation
        JOINT FootRight
        {
          OFFSET -2.522666 -7.026646 3.188001
          CHANNELS 3 Zrotation Xrotation Yrotation
          End Site
          {
            OFFSET 0 0 0
          }
        }
      }
    }
  }
}
MOTION
Frames: 12
Frame Time: 0.033333
34.815785 87.362428 374.806816 -0.000000 0.000000 29.130157 0.000000 0.000000 -29.130157 -0.000000 0.000000 0.000000 -0.000000 0.000000 0.000000 0.000000 0.000000 0.000000 -0.000000 0.000000 0.000000 -0.000000 0.000000 0.000000 -0.000000 0.000000 0.000000 -0.000000 0.000000 0.000000 0.000000 0.000000 0.000000 0.000000 0.000000 0.000000 -0.000000 0.000000 0.000000 -0.000000 0.000000 0.000000 -0.000000 0.000000 0.000000 -0.000000 0.000000 0.000000 0.000000 0.000000 0.000000 0.000000 0.000000 0.000000 0.000000 0.000000 -29.130157 -0.000000 0.000000 0.000000 -0.000000 0.000000 0.000000 0.000000 0.000000 0.000000 0.000000 0.000000 -29.130157 -0.000000 0.000000 0.000000 -0.000000 0.000000 0.000000 0.000000 0.000000 0.000000
34.918622 87.372513 374.775018 0.131549 0.056716 28.869717 -0.142583 0.013847 -28.869765 -0.000000 0.000000 0.000000 -0.000000 0.000000 0.000000 0.000000 0.000000 0.000000 -0.000000 0.000000 0.000000 -1.354691 -0.504947 -0.075080 2.261240 1.938949 -0.088550 -0.996450 -2.359201 0.000199 0.000000 0.000000 0.000000 0.000000 0.000000 0.000000 -0.000000 0.000000 0.000000 -0.000000 0.000000 0.000000 4.018989 0.986380 -0.377502 -4.596938 -5.740838 -0.113516 0.000000 0.000000 0.000000 0.000000 0.000000 0.000000 -0.142583 0.013847 -28.869765 -0.000000 0.000000 0.000000 2.661434 -2.993528 -1.075359 0.000000 0.000000 0.000000 -0.142583 0.013847 -28.869765 -0.000000 0.000000 0.000000 -3.954987 18.501256 -8.350893 0.000000 0.000000 0.000000
35.005063 87.382155 374.754999 0.250964 0.092153 28.628837 -0.264436 0.039359 -28.628948 -0.000000 0.000000 0.000000 -0.000000 0.000000 0.000000 0.000000 0.000000 0.000000 -0.000000 0.000000 0.000000 -2.458578 -0.847474 -0.144015 4.180113 3.743494 -0.230772 -2.008905 -4.487374 0.036794 0.000000 0.000000 0.000000 0.000000 0.000000 0.000000 -0.000000 0.000000 0.000000 -1.331560 -0.242224 0.196556 8.003861 1.817158 -0.887049 -7.730032 -10.234786 -0.340602 0.000000 0.000000 0.000000 0.000000 0.000000 0.000000 -0.264436 0.039359 -28.628948 -0.000000 0.000000 0.000000 4.813192 -5.402889 -1.937761 0.000000 0.000000 0.000000 -0.264436 0.039359 -28.628948 -0.000000 0.000000 0.000000 -5.338528 38.705825 -17.357753 0.000000 0.000000 0.000000
35.075109 87.391352 374.746759 0.358324 0.106356 28.407241 -0.365775 0.076919 -28.407328 -0.000000 0.000000 0.000000 0.692594 0.765574 0.156822 0.000000 0.000000 0.000000 0.265978 -0.983873 0.153457 -3.575758 -0.036517 -0.291599 5.755341 5.416323 -0.408946 -3.028932 -6.421033 0.097653 0.000000 0.000000 0.000000 0.000000 0.000000 0.000000 -0.000000 0.000000 0.000000 -1.771998 -0.244677 0.264123 10.201255 2.183725 -1.158353 -9.884705 -13.551145 -0.574590 0.000000 0.000000 0.000000 0.000000 0.000000 0.000000 -0.365775 0.076919 -28.407328 -0.000000 0.000000 0.000000 6.257213 -6.935001 -2.591161 0.000000 0.000000 0.000000 -1.412304 -0.076423 -28.643963 0.027340 0.600234 -0.029157 -2.674572 54.690855 -26.215944 0.000000 0.000000 0.000000
35.128759 87.400106 374.750297 0.453693 0.099345 28.204670 -0.446777 0.126877 -28.204569 -0.000000 0.000000 0.000000 0.828697 0.808283 0.168350 0.000000 0.000000 0.000000 0.368723 -1.126143 0.191102 -4.277058 0.089774 -0.344239 6.984652 6.962164 -0.608881 -4.051383 -8.188474 0.173995 0.000000 0.000000 0.000000 0.000000 0.000000 0.000000 -0.000000 0.000000 0.000000 -2.062298 -0.167308 0.312642 11.614271 2.313247 -1.319993 -11.312680 -15.746902 -0.757910 0.000000 0.000000 0.000000 0.000000 0.000000 0.000000 -0.446777 0.126877 -28.204569 -0.000000 0.000000 0.000000 6.848720 -7.376033 -3.045548 0.000000 0.000000 0.000000 -1.790117 -0.188096 -28.535758 0.009057 0.905815 0.008209 2.567782 64.973108 -35.704311 0.000000 0.000000 0.000000
35.166014 87.408415 374.765615 0.537123 0.071119 28.020875 -0.507572 0.189554 -28.020368 -0.000000 0.000000 0.000000 0.916397 0.742981 0.160138 0.000000 0.000000 0.000000 0.478233 -1.175339 0.221611 -4.732631 0.283057 -0.378834 7.864666 8.387075 -0.819911 -5.073421 -9.811695 0.259331 0.000000 0.000000 0.000000 0.000000 0.000000 0.000000 -0.000000 0.000000 0.000000 -2.202558 -0.009817 0.342421 12.386616 2.245878 -1.379988 -12.146909 -16.862667 -0.857262 0.000000 0.000000 0.000000 0.000000 0.000000 0.000000 -0.507572 0.189554 -28.020368 -0.000000 0.000000 0.000000 6.520594 -6.627104 -3.290546 0.000000 0.000000 0.000000 -2.116074 -0.337331 -28.452316 -0.030207 1.258616 0.066262 9.587777 71.050820 -45.343591 0.000000 0.000000 0.000000
35.193137 87.419778 374.775566 0.595404 0.034183 27.775478 -0.542734 0.247216 -27.774484 -0.000000 0.000000 0.000000 0.875044 0.669029 0.146374 0.000000 0.000000 0.000000 0.531969 -1.300844 0.246436 -4.358980 0.951707 -0.360965 7.391988 9.587790 -1.017992 -7.667074 -13.049530 0.201075 0.000000 0.000000 0.000000 0.000000 0.000000 0.000000 -0.000000 0.000000 0.000000 -2.143394 0.314438 0.349757 12.401765 2.299074 -1.446132 -12.973850 -17.755142 -0.793032 0.000000 0.000000 0.000000 0.000000 0.000000 0.000000 -0.542734 0.247216 -27.774484 -0.000000 0.000000 0.000000 8.048349 -10.708662 -1.393821 0.000000 0.000000 0.000000 -2.312193 -0.583604 -28.310213 -0.393427 1.417884 0.025077 19.151726 75.858768 -57.292732 0.000000 0.000000 0.000000
35.212182 87.429915 374.801858 0.653766 -0.012844 27.624608 -0.573290 0.314510 -27.622961 -0.000000 0.000000 0.000000 -0.000000 0.000000 0.000000 0.000000 0.000000 0.000000 0.490691 -1.443040 0.250385 -4.148572 1.383120 -0.342481 7.090665 10.792458 -1.190637 -7.529506 -13.233390 0.469204 0.000000 0.000000 0.000000 0.000000 0.000000 0.000000 -0.000000 0.000000 0.000000 -2.035583 0.660548 0.350002 12.182697 1.261916 -1.134692 -12.569490 -16.294416 -0.805258 0.000000 0.000000 0.000000 0.000000 0.000000 0.000000 -0.573290 0.314510 -27.622961 -0.000000 0.000000 0.000000 3.738921 0.373002 -5.490088 0.000000 0.000000 0.000000 -2.448845 -0.485768 -28.168616 -0.383786 1.427257 0.003743 27.927609 77.978839 -67.262234 0.000000 0.000000 0.000000
35.220459 87.452368 374.800772 0.727216 -0.017754 27.475556 -0.637009 0.351259 -27.473491 -0.000000 0.000000 0.000000 -0.000000 0.000000 0.000000 0.000000 0.000000 0.000000 0.646092 -1.099449 0.253751 -4.317464 1.833948 -0.347729 7.339185 11.637060 -1.351914 -7.032533 -14.088129 0.594601 0.000000 0.000000 0.000000 0.000000 0.000000 0.000000 -0.000000 0.000000 0.000000 -1.691090 1.022651 0.311449 11.581369 0.899455 -1.014116 -13.230789 -15.793494 -0.607415 0.000000 0.000000 0.000000 0.000000 0.000000 0.000000 -0.637009 0.351259 -27.473491 -0.000000 0.000000 0.000000 0.399355 2.953159 -2.925167 0.000000 0.000000 0.000000 -3.001480 -1.159688 -28.292009 -0.412386 2.611632 0.315222 40.218970 78.892432 -79.611499 0.000000 0.000000 0.000000
35.169987 87.454970 374.897207 0.741448 -0.129263 27.263783 -0.599881 0.454537 -27.260568 -0.000000 0.000000 0.000000 0.892781 -0.998154 -0.133121 0.000000 0.000000 0.000000 0.994666 -0.309892 0.256030 -4.687584 1.986280 -0.384041 7.345149 10.020128 -1.158696 -6.112319 -11.620731 0.880144 0.000000 0.000000 0.000000 0.000000 0.000000 0.000000 -0.000000 0.000000 0.000000 -1.468926 1.448454 0.294141 10.865747 0.282115 -0.840698 -12.415658 -14.434345 -0.507684 0.000000 0.000000 0.000000 0.000000 0.000000 0.000000 -0.599881 0.454537 -27.260568 -0.000000 0.000000 0.000000 -1.269309 1.561153 0.412265 0.000000 0.000000 0.000000 -2.719120 -0.746454 -27.947435 -0.267445 2.315265 0.266367 28.721754 77.609915 -67.960787 0.000000 0.000000 0.000000
35.043144 87.467289 375.031231 0.787770 -0.355948 27.208144 0.028382 -0.166426 -27.181518 -0.031377 -0.117606 0.032397 -0.562849 -0.993105 -0.319684 0.000000 0.000000 0.000000 0.459115 1.310704 0.159781 -4.879205 1.896792 -0.409415 8.352841 9.327380 -1.153035 -6.782988 -10.925156 0.889604 0.000000 0.000000 0.000000 0.000000 0.000000 0.000000 -0.857203 0.609425 -0.050347 -1.244627 1.550851 0.260872 9.321624 0.194534 -0.775462 -11.087499 -10.522814 0.064118 0.000000 0.000000 0.000000 0.000000 0.000000 0.000000 -0.537896 0.676723 -27.202520 -0.000000 0.000000 0.000000 -2.217990 -1.070008 3.850505 0.000000 0.000000 0.000000 -2.506796 -0.412163 -27.824357 0.106720 2.617044 0.438960 9.598670 72.653914 -48.414482 0.000000 0.000000 0.000000
34.869039 87.412123 375.310918 0.905435 -0.786586 27.411377 0.131043 -0.327520 -27.375611 0.021731 -0.212850 0.044776 0.122325 -0.174495 -0.266966 0.000000 0.000000 0.000000 0.775801 3.255675 0.120157 -5.184275 1.700128 -0.495377 9.318963 7.872122 -1.021642 -8.226832 -9.619705 0.886845 0.000000 0.000000 0.000000 0.000000 0.000000 0.000000 -1.192926 1.231329 -0.059121 -1.136496 1.359709 0.234521 8.777265 1.974449 -1.267698 -10.549108 -10.467597 0.498280 0.000000 0.000000 0.000000 0.000000 0.000000 0.000000 0.372188 1.352576 -27.125753 -0.616071 -0.582316 -0.295767 -6.790177 5.232338 4.587504 0.000000 0.000000 0.000000 -2.794289 -1.210525 -28.393185 0.019614 4.881217 1.082232 -0.620921 66.009217 -37.687444 0.000000 0.000000 0.000000
